# xmcd
#
# Track frame offsets:
#  150
#  16202
#  31188
#  48464
#  64529
#  80081
#  93424
#  104047
#  122770
#  136214
#  148685
#  164398
#  178952
#  196086
#
# Disc length: 2833 seconds
#
# Revision: 0
# Processed by: cddbd v1.5PL3 Copyright (c) Steve Scherf et al.
# Submitted via: AltoMP3_Maker 3.0
#
DISCID=c10b0f0e
DTITLE=Adam Harvey - Sugar Talk
DYEAR=1900
DGENRE=
TTITLE0=When I'm Drinking
TTITLE1=Gypsy Queen
TTITLE2=I Blame You
TTITLE3=Hold On To My Heart
TTITLE4=Goodnight Sweetheart
TTITLE5=Treat Me Like A Dog
TTITLE6=Sugar Talk
TTITLE7=I Never Go Around Mirrors
TTITLE8=I Can Tell By The Way You Dance
TTITLE9=Caroline
TTITLE10=When You Love Somebody
TTITLE11=Love Listens
TTITLE12=It's Still Love
TTITLE13=Don't Tell Me (You're Not In Love)
EXTD=
EXTT0=
EXTT1=
EXTT2=
EXTT3=
EXTT4=
EXTT5=
EXTT6=
EXTT7=
EXTT8=
EXTT9=
EXTT10=
EXTT11=
EXTT12=
EXTT13=
PLAYORDER=
